<svg xmlns="http://www.w3.org/2000/svg" xmlns:xlink="http://www.w3.org/1999/xlink" width="395.967" height="56.221" viewBox="0 0 395.967 56.221">
  <defs>
    <linearGradient id="linear-gradient" x1="0.5" y1="0.334" x2="0.5" y2="0.9" gradientUnits="objectBoundingBox">
      <stop offset="0" stop-color="#fffeff"/>
      <stop offset="0.725" stop-color="#dfdede"/>
      <stop offset="1" stop-color="#bebebe"/>
    </linearGradient>
  </defs>
  <g id="Group_749" data-name="Group 749" transform="translate(0 2.004)">
    <g id="Group_748" data-name="Group 748">
      <path id="Path_716" data-name="Path 716" d="M339.6,88.477H87.725A4.223,4.223,0,0,1,83.5,84.252V38.485a4.223,4.223,0,0,1,4.225-4.225H339.608V88.477Z" transform="translate(-83.5 -34.26)" fill="#ce011b"/>
      <path id="Path_717" data-name="Path 717" d="M405.98,88.477H541.622a4.223,4.223,0,0,0,4.225-4.225V38.485a4.223,4.223,0,0,0-4.225-4.225H405.98V88.477Z" transform="translate(-149.88 -34.26)" fill="url(#linear-gradient)"/>
      <text id="Breaking" transform="translate(25.268 40.996)" fill="#fff" font-size="41" font-family="Roboto-Bold, Roboto" font-weight="700"><tspan x="0" y="0">BREAKING</tspan></text>
      <text id="News" transform="translate(265.338 40.996)" fill="#ce011b" font-size="41" font-family="Roboto-Bold, Roboto" font-weight="700"><tspan x="0" y="0">NEWS</tspan></text>
    </g>
  </g>
</svg>
