<svg xmlns="http://www.w3.org/2000/svg" width="71.649" height="63.027" viewBox="0 0 71.649 63.027">
  <g id="Feature-icons-update-3-01" transform="translate(-7.7 -37.58)">
    <g id="Group_706" data-name="Group 706" transform="translate(15.366 51.414)">
      <g id="Group_705" data-name="Group 705" transform="translate(0 0)">
        <path id="Path_697" data-name="Path 697" d="M69.976,145.193H67.014v11.9h7.87V154.5H69.977v-9.312Zm5.376,11.894h2.955v-11.9H75.352Zm39.856-20.981a4.006,4.006,0,0,0-3.958-.128l-7.241,3.77v-1.1a5.2,5.2,0,0,0-5.193-5.193H66.023a5.2,5.2,0,0,0-5.193,5.193v24.975a5.2,5.2,0,0,0,5.193,5.193H98.516a5.2,5.2,0,0,0,5.193-5.193v-2.17l7.481,4.057a4.037,4.037,0,0,0,5.96-3.548V139.556A4.012,4.012,0,0,0,115.208,136.106Zm-1.526,25.861a.555.555,0,0,1-.277.489.549.549,0,0,1-.561.012l-8.932-4.845a2.486,2.486,0,0,0-3.67,2.186v3.822a1.727,1.727,0,0,1-1.726,1.726H66.023A1.727,1.727,0,0,1,64.3,163.63V138.656a1.728,1.728,0,0,1,1.726-1.726H98.814a1.727,1.727,0,0,1,1.726,1.726v2.714a2.486,2.486,0,0,0,3.632,2.2l8.677-4.519a.569.569,0,0,1,.831.5v22.408Zm-21.348-9.706h4.441v-2.568H92.333v-1.9h5.138v-2.6H86.238l-2.352,7.237-2.326-7.237H78.338l4.263,11.9h2.583l4.186-11.632v11.632h8.152V154.5H92.331v-2.244Z" transform="translate(-60.83 -133.46)" fill="#fff"/>
      </g>
    </g>
    <g id="Group_707" data-name="Group 707" transform="translate(7.7 37.58)">
      <path id="Path_698" data-name="Path 698" d="M71.408,100.607H15.641A7.95,7.95,0,0,1,7.7,92.666V45.521a7.95,7.95,0,0,1,7.941-7.941H71.408a7.95,7.95,0,0,1,7.941,7.941V92.665A7.95,7.95,0,0,1,71.408,100.607ZM15.641,42.2a3.328,3.328,0,0,0-3.324,3.324V92.665a3.328,3.328,0,0,0,3.324,3.324H71.408a3.328,3.328,0,0,0,3.324-3.324V45.521A3.328,3.328,0,0,0,71.408,42.2Z" transform="translate(-7.7 -37.58)" fill="#fff"/>
    </g>
  </g>
</svg>
