<svg id="Group_684" data-name="Group 684" xmlns="http://www.w3.org/2000/svg" width="68.908" height="71" viewBox="0 0 68.908 71">
  <path id="Path_573" data-name="Path 573" d="M80.552,135.339c-.58-.135-1.163-.257-1.737-.409A11.776,11.776,0,0,1,70,123.64Q69.97,100,70,76.359a2.422,2.422,0,1,1,4.829.041q.011,10.814,0,21.63,0,12.617,0,25.234a7.041,7.041,0,0,0,5.487,7.146,8.5,8.5,0,0,0,1.926.2q22.192.017,44.385.006a7.081,7.081,0,0,0,7.432-7.4q.011-23.364,0-46.727a7.086,7.086,0,0,0-7.483-7.419q-17.4-.006-34.8,0A7.1,7.1,0,0,0,84.3,76.557q0,23.225,0,46.449a2.391,2.391,0,0,1-2.54,2.632,2.342,2.342,0,0,1-2.189-2.2c-.006-.115,0-.232,0-.346q0-23.4,0-46.8a11.726,11.726,0,0,1,8.96-11.575,12.467,12.467,0,0,1,2.949-.363q17.746-.036,35.494-.011a11.82,11.82,0,0,1,11.809,10.223,1.564,1.564,0,0,0,.12.311V124.8a2.225,2.225,0,0,0-.126.38,11.813,11.813,0,0,1-8.763,9.765c-.552.144-1.111.261-1.667.393Q104.447,135.341,80.552,135.339Z" transform="translate(-69.991 -64.339)" fill="#fff"/>
  <path id="Path_574" data-name="Path 574" d="M191.812,215.706c0,1.917.009,3.834,0,5.751a4.643,4.643,0,0,1-4.659,4.836q-4.857.111-9.721,0a4.656,4.656,0,0,1-4.644-4.859q-.019-5.751,0-11.5a4.723,4.723,0,0,1,4.91-4.886q4.618-.011,9.236,0a4.707,4.707,0,0,1,4.875,4.842C191.822,211.824,191.812,213.765,191.812,215.706Zm-14.252-5.926v11.768h9.469V209.781Z" transform="translate(-153.738 -178.974)" fill="#fff"/>
  <path id="Path_575" data-name="Path 575" d="M191.837,145.7q-8.919,0-17.84,0a2.377,2.377,0,1,1-.013-4.742q17.874,0,35.75,0a2.374,2.374,0,1,1,.013,4.74Q200.792,145.7,191.837,145.7Z" transform="translate(-152.656 -126.761)" fill="#fff"/>
  <path id="Path_576" data-name="Path 576" d="M194.2,345.614q8.819,0,17.64,0a2.37,2.37,0,0,1,2.521,2.375,2.413,2.413,0,0,1-2.558,2.356l-35.14-.006a2.381,2.381,0,0,1-2.612-2.354,2.312,2.312,0,0,1,2.369-2.365c2.2-.017,4.4-.006,6.6-.006H194.2S194.2,345.616,194.2,345.614Z" transform="translate(-154.775 -293.51)" fill="#fff"/>
  <path id="Path_577" data-name="Path 577" d="M298.807,217.806q3.437,0,6.874,0a2.367,2.367,0,1,1,.035,4.722q-6.943.006-13.887,0a2.37,2.37,0,1,1,.033-4.722Q295.336,217.8,298.807,217.806Z" transform="translate(-248.652 -189.379)" fill="#fff"/>
  <path id="Path_578" data-name="Path 578" d="M298.705,286.291c-2.291,0-4.583,0-6.874,0a2.37,2.37,0,1,1,.031-4.722q6.943-.008,13.887-.007a2.4,2.4,0,0,1,2.488,2.356,2.359,2.359,0,0,1-2.451,2.375c-2.36.011-4.722,0-7.081,0Z" transform="translate(-248.652 -241.324)" fill="#fff"/>
</svg>
