<svg id="Feature-icons-update-3-03" xmlns="http://www.w3.org/2000/svg" width="98.274" height="75.56" viewBox="0 0 98.274 75.56">
  <g id="Group_758" data-name="Group 758">
    <g id="Group_757" data-name="Group 757">
      <path id="Path_719" data-name="Path 719" d="M118.659,166.043v-4.913a1.184,1.184,0,0,0-2.368,0v4.913a1.184,1.184,0,0,0,2.368,0Zm2.41,1.184a1.184,1.184,0,0,0,1.184-1.184v-4.913a1.184,1.184,0,1,0-2.368,0v4.913A1.184,1.184,0,0,0,121.068,167.227Zm-43.135,6.9a1.184,1.184,0,1,0,0,2.368H105.54a1.184,1.184,0,1,0,0-2.368Zm0-6.9a1.184,1.184,0,0,0,1.184-1.184v-4.913a1.184,1.184,0,0,0-2.368,0v4.913A1.181,1.181,0,0,0,77.934,167.227Zm26.347-1.184v-4.913a1.184,1.184,0,0,0-2.368,0v4.913a1.184,1.184,0,0,0,2.368,0Zm-3.594,0v-4.913a1.184,1.184,0,0,0-2.368,0v4.913a1.184,1.184,0,0,0,2.368,0Zm-23.94,4.527a1.184,1.184,0,0,0,1.184,1.184h41.436a1.184,1.184,0,0,0,0-2.368H77.934A1.185,1.185,0,0,0,76.747,170.571Zm5.965-4.527v-4.913a1.184,1.184,0,0,0-2.368,0v4.913a1.184,1.184,0,0,0,2.368,0Zm28.759,0v-4.913a1.184,1.184,0,0,0-2.368,0v4.913a1.184,1.184,0,0,0,2.368,0Zm3.594,0v-4.913a1.184,1.184,0,0,0-2.368,0v4.913a1.184,1.184,0,0,0,2.368,0ZM93.987,136.312h-15.9a2.657,2.657,0,0,0-2.653,2.655v14.81a2.657,2.657,0,0,0,2.653,2.655h15.9a2.657,2.657,0,0,0,2.653-2.655v-14.81A2.657,2.657,0,0,0,93.987,136.312Zm-9.135,17.75H78.089a.285.285,0,0,1-.282-.284v-14.81a.283.283,0,0,1,.282-.284h6.764Zm9.417-.284a.285.285,0,0,1-.282.284H87.224v-6.267h7.048v5.983Zm0-8.354H87.224v-6.741h6.764a.283.283,0,0,1,.282.284ZM153.026,122.3a1.861,1.861,0,0,0-1.9.571q-3.995,4.006-7.995,8a4.183,4.183,0,0,0-.323.447,3.537,3.537,0,0,0-.3-.424c-1.135-1.143-2.265-2.291-3.415-3.413a1.848,1.848,0,1,0-2.521,2.7q2.374,2.362,4.739,4.737a1.891,1.891,0,0,0,2.984.008q4.689-4.689,9.375-9.375c.093-.093.189-.186.274-.287A1.832,1.832,0,0,0,153.026,122.3Zm-10.673,31.476V151.3a2.655,2.655,0,0,0-2.653-2.653H126.557A2.657,2.657,0,0,0,123.9,151.3v2.474a2.659,2.659,0,0,0,2.655,2.655H139.7A2.655,2.655,0,0,0,142.353,153.777Zm-2.371,0a.285.285,0,0,1-.282.284H126.557a.287.287,0,0,1-.284-.284V151.3a.285.285,0,0,1,.284-.282H139.7a.282.282,0,0,1,.282.282v2.474Zm-5.719,7.353v4.913a1.184,1.184,0,1,0,2.368,0v-4.913a1.184,1.184,0,1,0-2.368,0Zm13.8,9.693a3.162,3.162,0,0,0-3.162,3.162v2.2a2.934,2.934,0,0,1-2.935,2.935H75.219a2.94,2.94,0,0,1-2.937-2.935V136.47a2.94,2.94,0,0,1,2.937-2.935H87.966a3.162,3.162,0,0,0,3.162-3.162h0a3.162,3.162,0,0,0-3.162-3.162H75.219a9.258,9.258,0,0,0-9.259,9.259v39.711a9.27,9.27,0,0,0,9.259,9.259h66.746a9.257,9.257,0,0,0,9.256-9.259v-2.2A3.159,3.159,0,0,0,148.061,170.824Zm-10.205-9.693v4.913a1.184,1.184,0,1,0,2.368,0v-4.913a1.184,1.184,0,1,0-2.368,0Zm7.312-51.251a19.09,19.09,0,0,0-18.986,17.334h-28.3a3.162,3.162,0,0,0,0,6.324h28.782A19.09,19.09,0,0,0,144.9,148.007V164.07a3.162,3.162,0,1,0,6.324,0V147.024a19.066,19.066,0,0,0-6.055-37.144Zm6.053,30.274a12.691,12.691,0,0,1-6.053,1.531c-.09,0-.181,0-.269-.005a12.741,12.741,0,0,1-12.475-12.739,12.3,12.3,0,0,1,.119-1.73,12.741,12.741,0,1,1,18.678,12.943ZM95.906,159.947a1.184,1.184,0,0,0-1.184,1.184v4.913a1.184,1.184,0,0,0,2.368,0v-4.913A1.182,1.182,0,0,0,95.906,159.947Zm34.763,1.184v4.913a1.184,1.184,0,0,0,2.368,0v-4.913a1.184,1.184,0,0,0-2.368,0ZM93.5,166.043v-4.913a1.184,1.184,0,0,0-2.368,0v4.913a1.184,1.184,0,0,0,2.368,0Zm-7.188,0v-4.913a1.184,1.184,0,0,0-2.368,0v4.913a1.184,1.184,0,0,0,2.368,0Z" transform="translate(-65.96 -109.88)" fill="#fff"/>
    </g>
  </g>
</svg>
