<svg id="icons-1-15" xmlns="http://www.w3.org/2000/svg" width="172.159" height="133.282" viewBox="0 0 172.159 133.282">
  <g id="Group_365" data-name="Group 365" transform="translate(0 0)">
    <path id="Path_493" data-name="Path 493" d="M39.384,67.208V27.349c0-10.139,5.5-15.669,15.565-15.669H157.1c9.93,0,15.547,5.548,15.547,15.408q.026,51.207,0,102.431c0,9.878-5.6,15.426-15.53,15.443H54.409c-7.217,0-11.687-2.922-14.3-9.634-.626-1.617-1.6-1.478-2.765-1.478-9.061,0-18.138.017-27.2,0-6.382-.017-9.617-3.2-9.634-9.513Q.489,100.468.516,76.6c0-6.122,3.287-9.374,9.478-9.374,8.7-.017,17.391,0,26.086,0C37.088,67.208,38.079,67.208,39.384,67.208Zm61.093,49.737h66.485a6.306,6.306,0,0,0,.122-.783q0-45.233-.017-90.466c0-5.043-3.565-8.4-8.713-8.434-8.608-.052-17.2-.017-25.808,0-.435,0-.87.1-1.53.174v3.13q0,19.851,0,39.686c0,3.982-1.687,5.026-5.217,3.269-5.878-2.922-11.773-5.808-17.6-8.834a4.192,4.192,0,0,0-4.365.035c-5.739,2.991-11.547,5.826-17.356,8.7-3.861,1.913-5.443.9-5.443-3.478q-.026-19.851,0-39.686V17.245c-9.148,0-17.843-.017-26.538,0-6.33.017-9.53,3.235-9.547,9.582q-.026,18.86,0,37.738c0,.8.087,1.6.157,2.626H48.27q21.521,0,43.025.017c5.808.017,9.148,3.322,9.182,9.113.035,8.887.017,17.756.017,26.642C100.477,107.59,100.477,112.2,100.477,116.946ZM94.895,97.973H6.063v25.721c0,3.982.626,4.591,4.713,4.591h50.8c9.808,0,19.617-.017,29.425.017,2.261,0,3.861-.661,3.878-3.217C94.912,116.128,94.895,107.155,94.895,97.973Zm30.364-40.938V17.454H86.686V56.983c1.009-.452,1.843-.8,2.643-1.2,4.713-2.348,9.461-4.609,14.1-7.078a5.038,5.038,0,0,1,5.182,0C114.025,51.522,119.5,54.165,125.259,57.035ZM45.4,133.849c2.122,4.278,5.217,5.582,9.287,5.565q50.242-.078,100.483-.035c1.391,0,2.783.07,4.156-.035,3.687-.278,6.956-2.748,7.443-6.365.435-3.3.087-6.73.087-10.087H100.651c-.07.487-.139.835-.157,1.183-.3,6.991-3.182,9.756-10.226,9.756H68.061C60.653,133.849,53.261,133.849,45.4,133.849ZM6.2,91.99H94.756V84.043H6.2C6.2,86.738,6.2,89.295,6.2,91.99Zm.087-13.878H94.773c.3-4.626-.348-5.339-4.574-5.339H10.915C6.463,72.773,5.768,73.556,6.289,78.112Z" transform="translate(-0.503 -11.68)" fill="#1d1f2b"/>
    <path id="Path_494" data-name="Path 494" d="M29.115,74.039c0,2.5-.017,4.991,0,7.5.017,2.278-1.078,3.443-3.374,3.443-5.182,0-10.365.017-15.547,0-2.313,0-3.322-1.235-3.3-3.5.017-5.1.017-10.174,0-15.269,0-2.278,1.078-3.443,3.374-3.443H25.811c2.313,0,3.339,1.252,3.322,3.5C29.1,68.857,29.115,71.448,29.115,74.039Zm-5.774,5.322V68.509H12.681V79.361Z" transform="translate(4.218 26.079)" fill="#1d1f2b"/>
    <path id="Path_495" data-name="Path 495" d="M35.112,62.77c3.426,0,6.852.017,10.278,0,2.035-.017,3.617.678,3.53,2.922-.07,2.07-1.635,2.661-3.53,2.643-6.852-.017-13.686-.017-20.538,0-2.017,0-3.6-.678-3.53-2.922.07-2.087,1.635-2.661,3.53-2.643C28.26,62.788,31.686,62.77,35.112,62.77Z" transform="translate(14.882 26.079)" fill="#1d1f2b"/>
    <path id="Path_496" data-name="Path 496" d="M35.285,73.125c-3.513,0-7.026-.017-10.539,0-1.913.017-3.409-.661-3.426-2.748-.035-2.087,1.426-2.817,3.356-2.817,6.939,0,13.878.017,20.817,0,1.913,0,3.409.678,3.426,2.748.035,2.069-1.426,2.817-3.356,2.817C42.12,73.108,38.711,73.125,35.285,73.125Z" transform="translate(14.883 29.619)" fill="#1d1f2b"/>
    <path id="Path_497" data-name="Path 497" d="M26.673,77.962c-.922,0-2.035.33-2.73-.07-1.061-.609-2.678-1.861-2.539-2.556a4.307,4.307,0,0,1,2.643-2.765,11.516,11.516,0,0,1,5.5,0c1.061.261,2.661,1.826,2.522,2.522-.209,1.1-1.548,2.139-2.661,2.817-.678.4-1.809.07-2.73.052Z" transform="translate(14.939 33.077)" fill="#1d1f2b"/>
    <path id="Path_498" data-name="Path 498" d="M33.134,78.011c-1.722.1-3.669-.157-3.774-2.4a3.9,3.9,0,0,1,2.1-2.974c2.556-1.026,5.182-.035,5.843,1.669C38.108,76.445,36.421,78.011,33.134,78.011Z" transform="translate(20.824 33.064)" fill="#1d1f2b"/>
    <path id="Path_499" data-name="Path 499" d="M84.469,84.3c-3.426,0-6.852-.017-10.278,0-1.913,0-3.391-.7-3.391-2.783s1.478-2.783,3.391-2.783q10.408.026,20.817,0c1.913,0,3.391.713,3.391,2.783S96.921,84.3,95.008,84.3Z" transform="translate(51.452 37.874)" fill="#1d1f2b"/>
    <path id="Path_500" data-name="Path 500" d="M92.222,84.4c-1.687.1-3.652-.139-3.791-2.365A3.971,3.971,0,0,1,90.5,79.023c2.522-1.043,5.182-.07,5.861,1.635C97.178,82.814,95.509,84.4,92.222,84.4Z" transform="translate(64.481 37.773)" fill="#1d1f2b"/>
  </g>
</svg>
